<?xml version="1.0" standalone="no"?>
<!DOCTYPE svg PUBLIC "-//W3C//DTD SVG 20010904//EN"
 "http://www.w3.org/TR/2001/REC-SVG-20010904/DTD/svg10.dtd">
<svg version="1.0" xmlns="http://www.w3.org/2000/svg"
 width="456.000000pt" height="456.000000pt" viewBox="0 0 456.000000 456.000000"
 preserveAspectRatio="xMidYMid meet">
<metadata>
Created by potrace 1.11, written by Peter Selinger 2001-2013
</metadata>
<g transform="translate(0.000000,456.000000) scale(0.100000,-0.100000)"
fill="#000000" stroke="none">
<path d="M0 2280 l0 -2280 2280 0 2280 0 0 2280 0 2280 -882 0 c-553 0 -889
-4 -898 -10 -8 -5 -13 -10 -10 -11 3 0 18 -2 34 -4 62 -8 37 -17 -29 -10 -38
4 -115 12 -170 17 -56 5 -655 12 -1352 14 l-1253 5 0 -2281z m3115 600 c3 -5
20 -10 36 -10 34 0 129 -38 129 -51 0 -5 6 -9 13 -9 14 0 34 -21 82 -85 17
-22 37 -48 46 -58 9 -10 27 -51 40 -90 38 -115 31 -342 -13 -391 -4 -6 -8 -18
-8 -28 0 -10 -4 -18 -10 -18 -5 0 -10 -5 -10 -10 0 -12 -4 -17 -80 -98 -52
-55 -65 -63 -232 -144 -21 -10 -252 -11 -261 -1 -4 3 -30 14 -57 24 -28 10
-73 34 -101 53 -27 20 -53 36 -57 36 -5 0 -23 16 -41 35 -17 19 -38 35 -46 35
-13 0 -65 45 -65 56 0 6 -101 104 -107 104 -3 0 -42 -37 -87 -82 -44 -46 -96
-94 -115 -108 -19 -14 -45 -35 -57 -47 -13 -13 -30 -23 -39 -23 -8 0 -15 -4
-15 -9 0 -4 -28 -20 -62 -35 -35 -15 -74 -33 -87 -39 -15 -8 -79 -12 -175 -12
-158 0 -164 1 -255 56 -38 22 -159 150 -165 174 -3 11 -13 39 -22 61 -24 54
-26 65 -31 182 -4 98 11 194 37 227 4 6 10 22 14 38 3 15 14 37 24 48 34 42
113 119 122 119 5 0 20 11 34 25 14 14 32 25 41 25 8 0 15 4 15 8 0 33 311 46
391 17 24 -9 52 -19 62 -22 9 -3 17 -9 17 -14 0 -5 8 -9 18 -9 10 0 24 -9 32
-20 8 -11 20 -20 27 -20 6 0 16 -6 20 -13 4 -7 24 -24 43 -37 49 -35 85 -66
151 -133 l56 -58 66 63 c93 89 129 121 173 154 22 16 41 32 42 37 2 4 12 7 23
7 10 0 19 4 19 9 0 16 122 71 157 71 18 0 33 5 33 10 0 6 45 10 114 10 66 0
117 -4 121 -10z"/>
<path d="M2895 2672 c-57 -13 -156 -75 -225 -141 -37 -36 -82 -77 -99 -90 -54
-41 -57 -57 -19 -100 18 -21 46 -46 63 -56 16 -10 43 -33 61 -49 68 -67 101
-93 157 -119 49 -23 71 -27 145 -27 83 0 92 2 145 34 62 37 87 59 87 74 0 6 3
12 8 14 4 2 18 22 31 46 28 53 39 148 21 194 -30 79 -44 108 -52 108 -4 0 -8
4 -8 10 0 11 -48 60 -59 60 -4 0 -18 10 -30 21 -19 18 -38 22 -109 25 -48 1
-100 0 -117 -4z"/>
<path d="M1675 2656 c-16 -6 -41 -18 -55 -25 -36 -20 -110 -101 -110 -120 0
-9 -9 -31 -20 -49 -33 -53 -28 -145 12 -229 44 -92 40 -89 170 -154 24 -12
165 -11 173 1 3 6 14 10 24 10 18 0 106 45 127 65 6 5 23 19 39 30 31 22 188
181 193 196 2 5 -3 9 -12 9 -9 0 -16 3 -16 8 0 18 -50 63 -62 56 -7 -4 -10 -4
-6 0 10 11 -28 49 -41 41 -6 -3 -11 0 -11 8 0 18 -77 87 -96 87 -8 0 -14 4
-14 8 0 4 -22 19 -50 33 -27 13 -50 26 -50 29 0 11 -166 7 -195 -4z"/>
<path d="M2593 4553 c9 -2 23 -2 30 0 6 3 -1 5 -18 5 -16 0 -22 -2 -12 -5z"/>
<path d="M2698 4553 c6 -2 18 -2 25 0 6 3 1 5 -13 5 -14 0 -19 -2 -12 -5z"/>
</g>
</svg>
