<?xml version="1.0" standalone="no"?>
<!DOCTYPE svg PUBLIC "-//W3C//DTD SVG 20010904//EN"
 "http://www.w3.org/TR/2001/REC-SVG-20010904/DTD/svg10.dtd">
<svg version="1.0" xmlns="http://www.w3.org/2000/svg"
 width="300.000000pt" height="300.000000pt" viewBox="0 0 300.000000 300.000000"
 preserveAspectRatio="xMidYMid meet">
<metadata>
Created by potrace 1.11, written by Peter Selinger 2001-2013
</metadata>
<g transform="translate(0.000000,300.000000) scale(0.100000,-0.100000)"
fill="#000000" stroke="none">
<path d="M727 2123 c-2 -1 -18 -5 -37 -8 -276 -46 -468 -235 -513 -504 -40
-235 34 -447 205 -591 124 -104 249 -148 420 -148 277 0 467 98 644 334 57 75
59 76 74 55 207 -290 397 -395 700 -387 142 4 223 25 324 86 119 72 218 194
259 320 55 166 41 391 -34 513 -10 18 -23 42 -29 55 -22 50 -153 166 -230 204
-112 54 -185 71 -315 71 -188 0 -333 -51 -475 -166 -57 -47 -156 -158 -200
-225 -15 -23 -15 -23 -63 41 -51 70 -141 165 -197 209 -80 63 -216 117 -335
134 -48 7 -194 12 -198 7z m195 -247 c135 -21 262 -111 370 -264 89 -124 86
-115 55 -155 -15 -20 -27 -40 -27 -46 0 -6 -4 -11 -10 -11 -5 0 -16 -12 -24
-27 -22 -44 -125 -144 -191 -187 -32 -22 -87 -48 -121 -57 -74 -21 -215 -23
-277 -4 -184 55 -291 207 -282 397 13 243 234 398 507 354z m1348 0 c14 -3 35
-7 46 -10 12 -2 43 -16 70 -29 115 -58 193 -180 202 -312 15 -235 -161 -415
-406 -415 -147 0 -259 47 -368 154 -62 61 -174 209 -174 230 0 25 115 179 180
240 87 81 194 136 290 148 33 4 130 0 160 -6z"/>
</g>
</svg>
