<?xml version="1.0" standalone="no"?>
<!DOCTYPE svg PUBLIC "-//W3C//DTD SVG 20010904//EN"
 "http://www.w3.org/TR/2001/REC-SVG-20010904/DTD/svg10.dtd">
<svg version="1.0" xmlns="http://www.w3.org/2000/svg"
 width="300.000000pt" height="300.000000pt" viewBox="0 0 300.000000 300.000000"
 preserveAspectRatio="xMidYMid meet">
<metadata>
Created by potrace 1.11, written by Peter Selinger 2001-2013
</metadata>
<g transform="translate(0.000000,300.000000) scale(0.100000,-0.100000)"
fill="#000000" stroke="none">
<path d="M790 2010 c-110 -23 -217 -82 -284 -155 -103 -113 -151 -285 -125
-450 15 -90 70 -196 138 -263 123 -122 278 -171 470 -151 190 21 318 104 464
302 l50 68 35 -52 c122 -182 260 -282 434 -315 18 -3 76 -6 128 -6 158 0 285
53 391 165 153 160 176 441 53 637 -27 43 -117 129 -165 156 -90 53 -157 68
-289 68 -109 0 -135 -4 -203 -27 -42 -15 -96 -39 -120 -54 -65 -42 -151 -128
-209 -210 -29 -40 -55 -73 -58 -73 -3 0 -14 14 -24 31 -25 43 -124 159 -166
196 -103 89 -218 132 -370 138 -58 2 -125 0 -150 -5z m252 -160 c65 -17 159
-73 212 -127 52 -51 156 -199 156 -221 0 -25 -121 -191 -172 -236 -103 -91
-203 -127 -342 -122 -78 2 -101 7 -158 35 -225 107 -273 405 -93 584 25 25 55
49 68 53 12 4 24 10 27 14 3 4 32 14 65 22 66 17 170 15 237 -2z m1191 -10
c213 -80 296 -338 172 -536 -62 -98 -160 -153 -285 -161 -135 -9 -261 34 -353
120 -53 50 -140 162 -163 210 -16 34 -16 35 21 93 117 185 227 266 400 297 47
8 156 -4 208 -23z"/>
</g>
</svg>
