<?xml version="1.0" standalone="no"?>
<!DOCTYPE svg PUBLIC "-//W3C//DTD SVG 20010904//EN"
 "http://www.w3.org/TR/2001/REC-SVG-20010904/DTD/svg10.dtd">
<svg version="1.0" xmlns="http://www.w3.org/2000/svg"
 width="300.000000pt" height="300.000000pt" viewBox="0 0 300.000000 300.000000"
 preserveAspectRatio="xMidYMid meet">
<metadata>
Created by potrace 1.11, written by Peter Selinger 2001-2013
</metadata>
<g transform="translate(0.000000,300.000000) scale(0.100000,-0.100000)"
fill="#000000" stroke="none">
<path d="M1255 2954 c-314 -56 -575 -192 -796 -413 -286 -286 -429 -635 -429
-1046 0 -411 143 -760 429 -1046 286 -286 635 -429 1046 -429 411 0 760 143
1046 429 286 286 429 635 429 1046 0 411 -143 760 -429 1046 -224 224 -486
359 -805 414 -113 19 -381 19 -491 -1z m500 -139 c181 -37 385 -124 524 -223
99 -70 247 -217 317 -314 103 -143 190 -347 231 -538 24 -118 24 -372 0 -490
-40 -188 -125 -389 -225 -529 -70 -99 -217 -247 -314 -317 -143 -103 -347
-190 -538 -231 -118 -24 -372 -24 -490 0 -191 41 -395 128 -538 231 -97 70
-244 218 -314 317 -100 140 -185 341 -225 529 -24 118 -24 372 0 490 40 188
125 389 225 529 70 99 217 247 312 315 175 125 403 216 616 245 96 14 323 6
419 -14z"/>
<path d="M760 2025 c-102 -25 -189 -71 -266 -142 -51 -46 -125 -173 -140 -238
-18 -78 -22 -119 -19 -180 11 -206 116 -375 290 -461 107 -53 162 -64 300 -61
134 4 219 27 322 89 70 41 170 139 220 214 36 54 38 55 53 36 81 -106 113
-142 165 -187 74 -64 131 -96 215 -123 98 -31 195 -40 310 -28 42 4 143 36
185 59 57 31 62 35 130 104 74 75 120 162 141 270 19 97 11 243 -15 292 -5 9
-9 20 -9 24 0 29 -64 127 -117 182 -113 114 -254 167 -430 161 -126 -4 -179
-17 -281 -66 -90 -44 -200 -142 -264 -238 -19 -28 -37 -52 -40 -52 -3 0 -24
26 -48 58 -145 200 -310 291 -537 297 -69 2 -131 -2 -165 -10z m265 -209 c11
-2 21 -5 23 -5 1 -1 4 -1 7 -1 16 1 107 -55 152 -92 57 -47 98 -96 150 -176
l34 -52 -38 -63 c-75 -123 -201 -226 -317 -261 -93 -28 -227 -15 -315 30 -38
19 -121 101 -121 119 0 6 -5 16 -12 23 -6 6 -13 17 -14 24 -2 7 -7 27 -12 44
-13 41 -7 150 11 201 33 95 130 181 235 209 43 11 169 11 217 0z m1170 3 c174
-43 277 -185 263 -364 -9 -106 -81 -215 -176 -264 -50 -26 -127 -42 -190 -40
-178 6 -288 75 -422 266 -55 78 -57 58 13 162 46 69 158 176 212 201 91 43
216 59 300 39z"/>
</g>
</svg>
